<svg preserveAspectRatio="none" width="100%" height="100%" overflow="visible" style="display: block;" viewBox="0 0 179 123" fill="none" xmlns="http://www.w3.org/2000/svg">
<path id="Subtract" fill-rule="evenodd" clip-rule="evenodd" d="M0 0H23V27H44V7H135V27H156V0H179V43H156V80H179V123H156V91H135V111H44V91H23V123H0V80H23V43H0V0ZM68.5 32C65.4625 32 63 34.4625 63 37.5V50.5C63 53.5375 65.4625 56 68.5 56C71.5375 56 74 53.5375 74 50.5V37.5C74 34.4625 71.5375 32 68.5 32ZM110.5 32C107.462 32 105 34.4625 105 37.5V50.5C105 53.5375 107.462 56 110.5 56C113.538 56 116 53.5375 116 50.5V37.5C116 34.4625 113.538 32 110.5 32Z" fill="var(--fill-0, #2D0440)"/>
</svg>
