<svg preserveAspectRatio="none" width="100%" height="100%" overflow="visible" style="display: block;" viewBox="0 0 938.177 565.902" fill="none" xmlns="http://www.w3.org/2000/svg">
<g id="Group 5">
<path id="Vector 2" d="M34.4471 530.064C35.1529 518.736 52.1046 504.476 57.3751 494.131C60.1887 488.608 59.8756 483.606 63.0159 478.104C67.3166 470.569 77.3965 467.609 83.3193 461.122C89.7789 454.047 108.551 452.517 118.119 449.671C127.599 446.851 138.377 446.3 148.161 444.754C163.355 442.353 173.064 450.869 187.287 450.986C193.129 451.034 193.328 458.255 200.139 457.969C206.364 457.707 213.531 462.607 218.875 465.552C225.313 469.1 230.588 470.385 237.261 475.231C240.593 477.65 248.27 482.976 252.317 483.226C266.53 484.104 280.699 486.675 294.642 490.313C304.95 493.002 315.823 485.272 325.847 488.443C332.895 490.673 341.598 493.777 349.148 492.584C375.146 488.476 384.54 489.002 399.905 467.899C408.432 456.186 419.974 439.199 422.038 424.778C423.445 414.945 419.625 392.035 411.698 386.278C396.832 375.484 361.069 376.901 346.018 387.643C323.177 403.944 318.762 428.515 322.799 454.063C327.315 482.647 334.181 512.199 371.555 510.471C388.202 509.702 405.112 508.23 422.197 505.53C445.128 501.907 441.929 480.077 460.478 471.933C463.974 470.398 465.747 460.44 468.986 456.813C476.717 448.157 477.329 431.427 480.225 420.176C485.159 401.003 481.231 378.708 486.228 359.027C489.406 346.509 497.104 329.088 508.107 322.919C518.893 316.871 526.117 301.388 536.56 293.935C577.367 264.811 621.901 256.642 673.431 248.5C696.555 244.847 717.896 239.845 735.773 227.086C743.65 221.464 750.93 222.686 757.615 214.452C764.968 205.395 762.131 201.718 765.503 191.098" stroke="var(--stroke-0, white)" stroke-width="11" stroke-linecap="round"/>
<g id="Group 4">
<ellipse id="Ellipse 5" cx="792.419" cy="146.842" rx="103.57" ry="107.462" transform="rotate(33.6436 792.419 146.842)" fill="var(--fill-0, white)"/>
<path id="Subtract" fill-rule="evenodd" clip-rule="evenodd" d="M770.5 92.9413L780.441 99.5576L772.616 111.316L781.693 117.357L787.49 108.647L826.825 134.824L821.029 143.534L830.106 149.575L837.931 137.817L847.873 144.433L835.411 163.16L825.469 156.543L814.745 172.657L824.687 179.273L812.225 198L802.283 191.383L811.557 177.447L802.48 171.406L796.684 180.116L757.348 153.939L763.145 145.229L754.067 139.188L744.793 153.124L734.851 146.508L747.314 127.781L757.256 134.397L767.979 118.284L758.037 111.668L770.5 92.9413ZM790.835 126.582C789.522 125.708 787.744 126.073 786.863 127.395L783.095 133.057C782.215 134.38 782.566 136.16 783.879 137.034C785.192 137.908 786.97 137.544 787.85 136.221L791.618 130.56C792.498 129.237 792.148 127.456 790.835 126.582ZM808.989 138.664C807.676 137.79 805.898 138.154 805.018 139.477L801.25 145.139C800.37 146.462 800.721 148.242 802.034 149.116C803.347 149.99 805.125 149.626 806.005 148.303L809.773 142.642C810.653 141.319 810.302 139.538 808.989 138.664Z" fill="var(--fill-0, black)"/>
</g>
</g>
</svg>
